<svg aria-hidden="true" style="position: absolute; width: 0; height: 0; overflow: hidden;" version="1.1" xmlns="http://www.w3.org/2000/svg" xmlns:xlink="http://www.w3.org/1999/xlink">
<defs>
<symbol id="icon-burger" viewBox="0 0 56 32">
<path d="M1.882 0.941h52.706c1.040 0 1.882 0.843 1.882 1.882s-0.843 1.882-1.882 1.882h-52.706c-1.040 0-1.882-0.843-1.882-1.882s0.843-1.882 1.882-1.882z"></path>
<path d="M1.882 14.118h52.706c1.040 0 1.882 0.843 1.882 1.882s-0.843 1.882-1.882 1.882h-52.706c-1.040 0-1.882-0.843-1.882-1.882s0.843-1.882 1.882-1.882z"></path>
<path d="M1.882 27.294h52.706c1.040 0 1.882 0.843 1.882 1.882s-0.843 1.882-1.882 1.882h-52.706c-1.040 0-1.882-0.843-1.882-1.882s0.843-1.882 1.882-1.882z"></path>
</symbol>
<symbol id="icon-close" viewBox="0 0 32 32">
<path fill="" d="M18.228 16l13.102-13.1c0.25-0.278 0.403-0.648 0.403-1.054 0-0.872-0.707-1.579-1.579-1.579-0.406 0-0.777 0.154-1.057 0.406l0.001-0.001-13.102 13.1-13.095-13.116c-0.291-0.313-0.705-0.509-1.165-0.509-0.877 0-1.588 0.711-1.588 1.588 0 0.459 0.195 0.872 0.506 1.162l0.001 0.001 13.116 13.102-13.116 13.1c-0.352 0.292-0.574 0.73-0.574 1.22 0 0.874 0.708 1.582 1.582 1.582 0.49 0 0.927-0.222 1.218-0.572l0.002-0.003 13.116-13.1 13.1 13.102c0.274 0.236 0.634 0.38 1.028 0.38 0.873 0 1.58-0.708 1.58-1.58 0-0.394-0.144-0.754-0.382-1.031l0.002 0.002-13.1-13.1z"></path>
</symbol>
</defs>
</svg>
