<svg aria-hidden="true" style="width:0;height:0;position:absolute;overflow:hidden" xmlns="http://www.w3.org/2000/svg"><defs><symbol id="icon-burger" viewBox="0 0 56 32"><path d="M1.882.941h52.706a1.882 1.882 0 1 1 0 3.764H1.882a1.882 1.882 0 1 1 0-3.764zM1.882 14.118h52.706a1.882 1.882 0 1 1 0 3.764H1.882a1.882 1.882 0 1 1 0-3.764zM1.882 27.294h52.706a1.882 1.882 0 1 1 0 3.764H1.882a1.882 1.882 0 1 1 0-3.764z"/></symbol><symbol id="icon-close" viewBox="0 0 32 32"><path d="M18.228 16 31.33 2.9A1.58 1.58 0 0 0 29.097.673l.001-.001-13.102 13.1L2.901.656A1.588 1.588 0 1 0 .654 2.897l.001.001L13.771 16 .655 29.1a1.582 1.582 0 1 0 2.226 2.23l.002-.003 13.116-13.1 13.1 13.102a1.58 1.58 0 0 0 2.226-2.231l.002.002-13.1-13.1z"/></symbol></defs></svg>